<?xml version="1.0" standalone="no"?>
<!DOCTYPE svg PUBLIC "-//W3C//DTD SVG 20010904//EN"
 "http://www.w3.org/TR/2001/REC-SVG-20010904/DTD/svg10.dtd">
<svg version="1.0" xmlns="http://www.w3.org/2000/svg"
 width="1580.000000pt" height="560.000000pt" viewBox="0 0 1580.000000 560.000000"
 preserveAspectRatio="xMidYMid meet">
<metadata>
Created by potrace 1.16, written by Peter Selinger 2001-2019
</metadata>
<g transform="translate(0.000000,560.000000) scale(0.100000,-0.100000)"
fill="#000000" stroke="none">
<path d="M5085 4474 c-33 -2 -159 -8 -280 -14 -121 -6 -245 -16 -275 -21 -30
-5 -86 -14 -125 -19 -326 -42 -551 -128 -741 -282 -208 -168 -320 -384 -369
-709 -14 -90 -16 -198 -12 -750 5 -805 12 -888 93 -1097 48 -124 116 -226 213
-322 194 -192 412 -290 801 -359 232 -42 340 -46 1180 -46 827 0 892 3 1075
42 39 8 102 21 140 29 65 14 124 29 220 56 22 7 91 36 154 65 62 29 115 53
118 53 2 0 9 4 16 10 7 5 41 32 77 60 148 115 248 269 318 490 78 245 77 227
77 1025 0 694 -1 712 -22 815 -19 91 -55 203 -91 290 -23 54 -120 201 -166
251 -97 105 -294 230 -446 283 -324 112 -632 144 -1425 150 -258 2 -497 2
-530 0z m1100 -787 c110 -16 238 -50 301 -78 22 -11 44 -19 48 -19 25 0 142
-100 175 -149 75 -112 71 -68 71 -781 0 -714 3 -681 -72 -790 -65 -95 -163
-152 -328 -193 -157 -39 -367 -52 -825 -52 -721 0 -941 33 -1128 171 -55 40
-118 131 -143 207 -16 47 -18 111 -21 627 -3 504 -2 584 13 650 20 92 76 202
127 245 43 37 164 99 222 114 132 33 171 40 270 50 174 18 185 19 700 16 367
-3 515 -7 590 -18z"/>
<path d="M12980 4450 c-277 -14 -588 -68 -735 -126 -196 -79 -321 -172 -448
-334 -17 -22 -63 -127 -81 -185 -8 -27 -23 -72 -32 -100 -14 -40 -18 -100 -22
-313 l-4 -263 499 6 c274 4 503 8 509 10 7 2 13 50 17 123 13 268 82 359 317
419 134 34 1030 36 1215 3 28 -5 69 -9 91 -9 38 -1 105 -17 174 -42 40 -15
106 -80 132 -129 33 -65 33 -194 0 -263 -52 -104 -171 -184 -337 -225 -74 -19
-191 -51 -310 -86 -27 -8 -81 -20 -120 -27 -38 -6 -81 -15 -95 -20 -14 -5 -50
-14 -80 -19 -30 -5 -89 -16 -130 -26 -148 -32 -257 -55 -355 -74 -156 -31
-451 -103 -559 -135 -26 -8 -56 -15 -65 -15 -17 -1 -86 -23 -191 -64 -36 -13
-88 -33 -116 -44 -154 -58 -331 -197 -421 -331 -21 -31 -40 -58 -43 -61 -12
-11 -60 -128 -60 -146 0 -11 -8 -41 -17 -69 -15 -43 -17 -113 -21 -532 l-3
-483 2020 0 2021 0 0 390 0 390 -1485 0 c-1354 0 -1485 1 -1485 16 0 52 77
139 150 171 44 18 134 45 225 66 39 9 120 28 180 42 61 15 137 32 170 40 66
15 167 37 260 55 82 16 187 38 265 54 36 8 101 22 145 30 44 9 109 23 145 31
36 8 94 19 130 25 118 20 193 40 465 122 124 37 181 57 222 74 17 8 35 14 40
14 15 0 129 76 169 112 215 194 296 326 340 558 15 75 19 142 18 320 0 239 2
227 -60 419 -35 110 -113 219 -209 293 -27 21 -54 42 -60 46 -52 40 -238 132
-267 132 -8 0 -18 3 -22 7 -17 17 -261 75 -431 102 -258 41 -458 53 -990 56
-280 2 -580 -1 -665 -5z"/>
<path d="M9030 4420 c-153 -14 -440 -76 -463 -99 -6 -6 -16 -11 -22 -11 -7 0
-47 -20 -90 -44 -87 -50 -212 -155 -240 -201 -68 -114 -85 -162 -105 -288 -40
-245 56 -491 260 -672 30 -26 63 -56 73 -66 10 -9 41 -35 68 -56 26 -21 48
-43 49 -48 0 -6 -17 -17 -37 -24 -21 -8 -58 -27 -84 -42 -25 -16 -51 -29 -58
-29 -6 0 -11 -3 -11 -7 0 -5 -24 -21 -53 -37 -141 -79 -271 -201 -352 -331
-87 -138 -118 -259 -117 -450 0 -128 3 -149 32 -245 17 -59 56 -151 87 -209
95 -178 274 -339 483 -434 254 -116 569 -168 885 -146 155 10 230 24 415 76
189 53 365 133 528 240 96 63 92 61 142 103 60 53 64 53 112 17 24 -18 65 -48
93 -67 27 -19 56 -40 65 -46 8 -7 44 -34 80 -60 36 -26 97 -71 135 -99 39 -28
113 -82 165 -120 52 -38 118 -86 146 -107 50 -37 53 -38 137 -38 l87 0 0 405
c0 377 -1 406 -17 412 -10 4 -32 18 -50 32 -96 77 -307 230 -340 246 -18 9
-34 19 -37 24 -4 6 38 72 82 126 19 23 91 175 110 231 40 116 63 254 69 412
l6 152 -361 0 c-198 0 -363 -4 -366 -9 -3 -5 -10 -58 -16 -117 -11 -128 -25
-175 -76 -266 -36 -65 -55 -81 -70 -57 -5 9 -79 66 -140 107 -11 7 -59 42
-109 77 -367 265 -565 406 -635 453 -30 20 -89 61 -130 91 -41 30 -97 71 -125
91 -188 137 -203 150 -234 206 -54 94 -52 186 5 254 58 69 285 100 549 75 177
-16 221 -28 266 -71 57 -53 69 -93 69 -241 l0 -133 404 0 405 0 -5 133 c-2 72
-6 164 -8 203 -13 229 -147 432 -356 538 -220 112 -504 162 -955 170 -143 3
-298 1 -345 -4z m159 -1983 c24 -18 55 -42 70 -55 14 -13 46 -37 71 -55 49
-34 120 -87 141 -106 8 -7 28 -22 45 -34 17 -12 93 -69 170 -127 76 -58 149
-111 161 -118 13 -7 23 -17 23 -21 0 -15 -120 -96 -190 -128 -165 -77 -251
-95 -460 -95 -139 -1 -175 2 -230 19 -138 44 -234 117 -286 221 -27 52 -29 66
-29 162 0 98 2 110 32 170 40 81 115 160 179 189 27 12 76 35 109 50 l60 28
45 -34 c25 -19 65 -49 89 -66z"/>
<path d="M2060 4351 c0 -14 -269 -283 -340 -340 -91 -73 -87 -70 -170 -131
-131 -97 -186 -132 -360 -233 -46 -26 -227 -117 -234 -117 -5 0 -43 -16 -178
-78 l-58 -26 0 -328 c0 -180 2 -328 5 -328 17 0 300 86 316 96 6 4 25 10 43
15 37 9 139 45 183 65 17 8 33 14 36 14 5 0 139 61 217 99 105 50 213 118 498
310 51 34 66 40 73 30 5 -8 9 -561 9 -1229 0 -932 3 -1219 12 -1228 9 -9 120
-12 440 -12 l428 0 0 1715 0 1715 -460 0 c-254 0 -460 -4 -460 -9z"/>
</g>
</svg>
